<svg width="428" height="277" viewBox="0 0 428 277" fill="none" xmlns="http://www.w3.org/2000/svg">
<g opacity="0.75" clip-path="url(#clip0_308_472)" filter="url(#filter0_f_308_472)">
<path d="M260.302 139.942L285.356 114.895L260.302 89.8487L267.941 82.2147L300.633 114.895L267.941 147.576L260.302 139.942Z" fill="#E6E6E6"/>
<path d="M198.94 104.847H188.755V115.06H198.94V104.847Z" fill="#E6E6E6"/>
<path d="M239.882 104.847H229.697V115.06H239.882V104.847Z" fill="#E6E6E6"/>
<path d="M219.411 104.847H209.226V115.06H219.411V104.847Z" fill="#E6E6E6"/>
<path d="M174.955 139.687L149.875 114.64L174.93 89.5935L167.291 81.9595L134.624 114.64L167.317 147.321L174.955 139.687Z" fill="#E6E6E6"/>
<path d="M260.302 135.091L285.356 110.045L260.302 84.9974L267.941 77.3634L300.633 110.045L267.941 142.725L260.302 135.091Z" fill="#0000FF"/>
<path d="M188.755 111.832H198.94V101.619H188.755L188.755 111.832ZM239.882 101.619H229.697V111.832H239.882V101.619ZM209.226 111.832H219.411V101.619H209.226V111.832Z" fill="url(#paint0_linear_308_472)"/>
<path d="M174.955 134.836L149.875 109.789L174.93 84.7423L167.291 77.1083L134.624 109.789L167.317 142.47L174.955 134.836Z" fill="#EB0000"/>
<path d="M52.3086 216.501L58.0101 217.883L66.0398 196.489L57.625 194.449L52.3086 216.501Z" fill="#A0616A"/>
<path d="M49.6094 221.635L51.3602 214.372L62.515 217.077C64.3923 217.534 66.012 218.719 67.0188 220.373C68.0255 222.026 68.3372 224.012 67.8853 225.896L67.8467 226.056L49.6094 221.635Z" fill="#2F2E41"/>
<path d="M77.5482 220.395L83.414 220.395L86.204 197.708L77.5474 197.708L77.5482 220.395Z" fill="#A0616A"/>
<path d="M76.127 218.55L87.6032 218.55H87.6035C89.536 218.55 91.3893 219.319 92.7558 220.69C94.1223 222.06 94.89 223.918 94.89 225.856V226.021L76.1273 226.021L76.127 218.55Z" fill="#2F2E41"/>
<path d="M76.1715 212.545L77.1358 177.25L75.8368 162.938L73.3021 173.952L62.2261 210.171L52.6777 207.651L63.7361 168.599L61.3343 143.55L68.2348 139.102L68.3279 139.119L91.9037 143.477L86.2086 211.539L76.1715 212.545Z" fill="#2F2E41"/>
<path d="M85.5022 148.391C83.6037 148.391 81.3833 147.777 78.9116 146.028C71.0025 140.43 61.5721 146.452 61.4776 146.513L61.0947 146.762L61.1082 146.305C61.1177 145.979 62.0649 113.564 62.0649 103.133C62.0649 92.3566 69.0764 84.4883 71.2254 82.3335C73.3346 80.2182 75.1094 80.265 77.356 80.3236C77.7431 80.3334 78.1467 80.3442 78.5711 80.3442C81.5071 80.3442 84.3615 83.1726 84.4816 83.293L84.5389 83.3507L84.5496 83.4313L92.6964 144.941L92.634 145.02C92.5963 145.069 89.921 148.391 85.5022 148.391Z" fill="#EB0000"/>
<path d="M90.129 70.5815C93.242 64.8712 91.1491 57.7115 85.4546 54.5899C79.76 51.4684 72.62 53.567 69.5071 59.2773C66.3941 64.9877 68.487 72.1473 74.1816 75.2689C79.8762 78.3904 87.0161 76.2918 90.129 70.5815Z" fill="#A0616A"/>
<path d="M97.807 158.239C97.251 157.807 96.7963 157.258 96.4748 156.631C96.1533 156.004 95.973 155.313 95.9463 154.609C95.9197 153.904 96.0475 153.202 96.3208 152.552C96.594 151.902 97.0061 151.32 97.5278 150.847L90.8545 135.063L99.5922 136.675L104.59 151.417C105.324 152.349 105.692 153.518 105.624 154.704C105.556 155.889 105.056 157.008 104.22 157.849C103.384 158.69 102.27 159.194 101.088 159.266C99.9055 159.338 98.7383 158.973 97.807 158.239V158.239Z" fill="#A0616A"/>
<path d="M95.9168 149.254L83.8586 124.588L78.5713 106.023L78.5755 89.8949C78.5874 89.8312 79.8304 83.5578 84.4373 83.9916C88.6148 84.3973 90.8648 86.4457 91.9605 90.8409C92.8914 94.5745 91.6183 105.651 91.495 106.697C92.3033 108.618 104.43 137.593 102.423 141.082C102.348 141.218 102.238 141.332 102.105 141.412L104.254 145.961L95.9168 149.254Z" fill="#EB0000"/>
<path d="M78.3157 69.3688C79.7244 69.5526 80.787 68.1074 81.2798 66.7714C81.7726 65.4354 82.1481 63.8801 83.3729 63.1584C85.0461 62.1725 87.1869 63.3583 89.1003 63.033C91.2612 62.6657 92.6662 60.3692 92.7763 58.1743C92.8864 55.9793 92.0153 53.8682 91.1606 51.8444L90.8622 54.3595C90.9021 53.5071 90.7232 52.6587 90.3427 51.8954C89.9621 51.1321 89.3927 50.4795 88.6887 50L89.0733 53.6905C88.9915 53.1813 88.8102 52.6934 88.5398 52.2547C88.2694 51.8159 87.9153 51.4351 87.4978 51.1339C87.0803 50.8328 86.6075 50.6173 86.1067 50.4999C85.606 50.3824 85.087 50.3652 84.5796 50.4494L84.6401 52.6483C82.1443 52.3507 79.6267 52.0527 77.1236 52.2794C74.6204 52.5061 72.0997 53.3003 70.2025 54.9534C67.3646 57.4262 66.3282 61.4979 66.6761 65.2517C67.0241 69.0055 68.5694 72.532 70.1799 75.9385C70.5851 76.7956 71.1456 77.7628 72.0853 77.872C72.9295 77.9701 73.7021 77.2624 73.9645 76.4518C74.1667 75.62 74.1589 74.7509 73.9417 73.9229C73.7043 72.6576 73.4049 71.3644 73.6282 70.0965C73.8515 68.8286 74.761 67.5757 76.0356 67.4203C77.3102 67.265 78.6143 68.7259 78.0016 69.8573L78.3157 69.3688Z" fill="#2F2E41"/>
<path d="M369.177 156.668C368.785 156.22 368.495 155.691 368.329 155.118C368.163 154.546 368.124 153.943 368.215 153.354C368.306 152.765 368.524 152.203 368.855 151.707C369.187 151.212 369.622 150.795 370.131 150.487L367.124 136.308L374.118 139.056L375.901 152.099C376.362 152.991 376.479 154.021 376.233 154.994C375.986 155.967 375.392 156.816 374.563 157.379C373.734 157.942 372.728 158.181 371.735 158.05C370.742 157.919 369.832 157.427 369.177 156.668V156.668Z" fill="#FFB8B8"/>
<path d="M368.383 145.605L368.345 145.466C364.564 131.442 360.655 116.945 355.884 101.16L355.852 101.057L355.958 100.995C358.617 99.4391 362.615 99.5427 365.256 101.236C366.452 102.008 367.382 103.13 367.921 104.45C368.459 105.77 368.58 107.224 368.267 108.616L371.748 126.812C373.163 132.76 374.627 138.917 376.027 144.988L376.066 145.16L375.85 145.174C373.301 145.336 370.669 145.504 368.559 145.597L368.383 145.605Z" fill="#0000FF"/>
<path d="M336.249 221.083H331.289L328.929 201.9H336.249V221.083Z" fill="#FFB8B8"/>
<path d="M337.514 225.903H321.522V225.701C321.524 224.046 322.18 222.459 323.347 221.289C324.514 220.119 326.096 219.461 327.747 219.459H337.514L337.514 225.903Z" fill="#2F2E41"/>
<path d="M382.983 216.98L378.257 218.49L370.2 200.932L377.175 198.703L382.983 216.98Z" fill="#FFB8B8"/>
<path d="M370.411 226.057L370.349 225.863C369.85 224.286 369.995 222.575 370.753 221.105C371.51 219.634 372.819 218.526 374.39 218.021L383.696 215.048L385.648 221.188L370.411 226.057Z" fill="#2F2E41"/>
<path d="M357.88 88.3089C363.368 88.3089 367.816 83.8482 367.816 78.3456C367.816 72.843 363.368 68.3823 357.88 68.3823C352.393 68.3823 347.945 72.843 347.945 78.3456C347.945 83.8482 352.393 88.3089 357.88 88.3089Z" fill="#FFB8B8"/>
<path d="M362.341 76.4991C362.398 72.4805 360.721 68.5007 358.127 66.4997C356.905 65.5288 355.385 65.0131 353.826 65.0407C352.267 65.0684 350.766 65.6375 349.579 66.6512C347.026 68.7433 345.427 72.7813 345.562 76.7964C351.283 76.8127 357.003 76.829 362.341 76.4991Z" fill="#2F2E41"/>
<path d="M339.08 214.908L338.881 214.889C334.567 214.464 330.105 214.025 325.889 213.975L325.659 213.972L325.69 213.744C326.689 206.489 327.113 198.946 327.523 191.652C327.927 184.449 328.345 177.001 329.319 169.928C329.731 168.033 330.133 166.162 330.533 164.297C333.844 148.865 336.972 134.288 343.428 119.859L343.489 119.723L343.637 119.74C349.695 120.476 355.516 122.692 360.027 125.981L360.114 126.044L360.11 126.153C360.023 128.394 359.933 130.711 360.066 132.821C362.114 135.674 363.471 138.966 364.029 142.436C364.588 145.906 364.333 149.459 363.284 152.813C365.06 158.766 366.897 164.92 368.771 170.99C373.321 183.5 378.03 196.446 382.857 209.569L382.936 209.784L382.713 209.836C379.24 210.654 375.658 211.497 372.124 211.824L371.99 211.836L371.927 211.718C362.914 194.899 355.585 177.227 350.046 158.96C348.84 162.648 347.103 165.977 345.419 169.202C343.809 172.135 342.393 175.171 341.179 178.29C340.434 184.424 340.236 191.069 340.045 197.496C339.865 203.573 339.694 209.312 339.102 214.709L339.08 214.908Z" fill="#2F2E41"/>
<path d="M354.488 66.6841C358.795 65.7536 363.559 66.6388 366.941 69.5526C370.323 72.4664 372.041 77.5071 370.651 81.8302C369.262 86.1533 364.545 89.195 360.279 88.0786C361.501 84.6255 360.126 80.3859 357.139 78.3969C353.597 76.0382 352.622 70.4067 354.488 66.6841Z" fill="#2F2E41"/>
<path d="M359.717 126.414L359.56 126.342C354.066 123.829 348.678 121.9 343.631 120.14L343.476 120.107L343.476 119.657L343.576 119.692C343.597 119.645 343.621 119.592 343.645 119.539C343.714 119.386 343.761 119.282 343.801 119.213L343.8 119.212C344.221 118.353 344.555 117.522 344.879 116.718C345.212 115.889 345.557 115.033 346.002 114.127C344.923 113.041 344.184 111.663 343.877 110.161C343.569 108.66 343.707 107.101 344.272 105.677C345.387 103.027 348.23 100.963 351.217 100.621C352.312 97.5992 354.751 91.2502 354.751 91.2502C354.751 91.2502 359.88 91.109 361.942 90.8465L361.977 90.8422L362.011 90.8497C366.514 91.8391 370.273 96.1117 371.153 101.24C371.895 105.568 370.768 110.519 367.978 115.181C366.547 117.46 364.965 119.641 363.241 121.707C361.985 123.283 360.798 124.771 359.812 126.269L359.717 126.414Z" fill="#0000FF"/>
<path d="M369.662 72.5883C366.647 72.137 364.28 69.0467 364.623 66.0095C364.966 62.9722 367.961 60.4904 371.001 60.7259C374.04 60.9615 376.619 63.8756 376.493 66.9296C376.366 69.9836 373.511 73.1644 369.662 72.5883Z" fill="#2F2E41"/>
<path d="M369.192 70.6188C366.177 70.1676 363.81 67.0773 364.152 64.04C364.302 63.0069 364.71 62.0286 365.338 61.1963C365.966 60.3639 366.795 59.7047 367.745 59.2799C365.314 59.8135 363.222 61.938 362.939 64.4457C362.596 67.4829 364.963 70.5732 367.978 71.0245C369.101 71.2013 370.252 71.0399 371.284 70.5608C370.595 70.7057 369.887 70.7254 369.192 70.6188V70.6188Z" fill="#2F2E41"/>
<path d="M310.712 124.156C311.003 123.636 311.404 123.186 311.887 122.838C312.37 122.49 312.923 122.253 313.508 122.142C314.092 122.032 314.693 122.052 315.27 122.2C315.846 122.348 316.382 122.62 316.842 122.999L329.172 115.431L328.918 122.96L317.249 128.992C316.563 129.724 315.634 130.179 314.637 130.27C313.64 130.361 312.644 130.082 311.838 129.485C311.033 128.889 310.473 128.018 310.265 127.035C310.058 126.053 310.217 125.029 310.712 124.156V124.156Z" fill="#FFB8B8"/>
<path d="M320.85 119.719L320.968 119.637C332.894 111.39 345.223 102.864 358.475 93.0936L358.562 93.0295L358.655 93.1086C361.004 95.1047 362.239 98.9188 361.526 101.98C361.199 103.368 360.453 104.621 359.392 105.57C358.33 106.519 357.003 107.118 355.591 107.286L339.641 116.639C334.52 119.959 329.219 123.395 323.977 126.741L323.828 126.836L323.743 126.635C322.741 124.28 321.706 121.847 320.916 119.884L320.85 119.719Z" fill="#0000FF"/>
<path d="M154.533 226.357H0.404537C0.297247 226.357 0.194351 226.314 0.118486 226.238C0.0426204 226.162 0 226.059 0 225.951C0 225.843 0.0426204 225.74 0.118486 225.664C0.194351 225.588 0.297247 225.545 0.404537 225.545H154.533C154.64 225.545 154.743 225.588 154.819 225.664C154.895 225.74 154.938 225.843 154.938 225.951C154.938 226.059 154.895 226.162 154.819 226.238C154.743 226.314 154.64 226.357 154.533 226.357Z" fill="#3F3D56"/>
<path d="M427.596 226.357H273.467C273.36 226.357 273.257 226.314 273.181 226.238C273.105 226.162 273.062 226.059 273.062 225.951C273.062 225.843 273.105 225.74 273.181 225.664C273.257 225.588 273.36 225.545 273.467 225.545H427.596C427.703 225.545 427.806 225.588 427.882 225.664C427.958 225.74 428 225.843 428 225.951C428 226.059 427.958 226.162 427.882 226.238C427.806 226.314 427.703 226.357 427.596 226.357Z" fill="#3F3D56"/>
</g>
<g clip-path="url(#clip1_308_472)">
<path d="M260.302 139.942L285.356 114.895L260.302 89.8487L267.941 82.2147L300.633 114.895L267.941 147.576L260.302 139.942Z" fill="#E6E6E6"/>
<path d="M198.94 104.847H188.755V115.06H198.94V104.847Z" fill="#E6E6E6"/>
<path d="M239.882 104.847H229.697V115.06H239.882V104.847Z" fill="#E6E6E6"/>
<path d="M219.411 104.847H209.226V115.06H219.411V104.847Z" fill="#E6E6E6"/>
<path d="M174.955 139.687L149.875 114.64L174.93 89.5935L167.291 81.9595L134.624 114.64L167.317 147.321L174.955 139.687Z" fill="#E6E6E6"/>
<path d="M260.302 135.091L285.356 110.045L260.302 84.9974L267.941 77.3634L300.633 110.045L267.941 142.725L260.302 135.091Z" fill="#0000FF"/>
<path d="M188.755 111.832H198.94V101.619H188.755L188.755 111.832ZM239.882 101.619H229.697V111.832H239.882V101.619ZM209.226 111.832H219.411V101.619H209.226V111.832Z" fill="url(#paint1_linear_308_472)"/>
<path d="M174.955 134.836L149.875 109.789L174.93 84.7423L167.291 77.1083L134.624 109.789L167.317 142.47L174.955 134.836Z" fill="#EB0000"/>
<path d="M52.3086 216.501L58.0101 217.883L66.0398 196.489L57.625 194.449L52.3086 216.501Z" fill="#A0616A"/>
<path d="M49.6094 221.635L51.3602 214.372L62.515 217.077C64.3923 217.534 66.012 218.719 67.0188 220.373C68.0255 222.026 68.3372 224.012 67.8853 225.896L67.8467 226.056L49.6094 221.635Z" fill="#2F2E41"/>
<path d="M77.5482 220.395L83.414 220.395L86.204 197.708L77.5474 197.708L77.5482 220.395Z" fill="#A0616A"/>
<path d="M76.127 218.55L87.6032 218.55H87.6035C89.536 218.55 91.3893 219.319 92.7558 220.69C94.1223 222.06 94.89 223.918 94.89 225.856V226.021L76.1273 226.021L76.127 218.55Z" fill="#2F2E41"/>
<path d="M76.1715 212.545L77.1358 177.25L75.8368 162.938L73.3021 173.952L62.2261 210.171L52.6777 207.651L63.7361 168.599L61.3343 143.55L68.2348 139.102L68.3279 139.119L91.9037 143.477L86.2086 211.539L76.1715 212.545Z" fill="#2F2E41"/>
<path d="M85.5022 148.391C83.6037 148.391 81.3833 147.777 78.9116 146.028C71.0025 140.43 61.5721 146.452 61.4776 146.513L61.0947 146.762L61.1082 146.305C61.1177 145.979 62.0649 113.564 62.0649 103.133C62.0649 92.3566 69.0764 84.4883 71.2254 82.3335C73.3346 80.2182 75.1094 80.265 77.356 80.3236C77.7431 80.3334 78.1467 80.3442 78.5711 80.3442C81.5071 80.3442 84.3615 83.1726 84.4816 83.293L84.5389 83.3507L84.5496 83.4313L92.6964 144.941L92.634 145.02C92.5963 145.069 89.921 148.391 85.5022 148.391Z" fill="#EB0000"/>
<path d="M90.129 70.5815C93.242 64.8712 91.1491 57.7115 85.4546 54.5899C79.76 51.4684 72.62 53.567 69.5071 59.2773C66.3941 64.9877 68.487 72.1473 74.1816 75.2689C79.8762 78.3904 87.0161 76.2918 90.129 70.5815Z" fill="#A0616A"/>
<path d="M97.807 158.239C97.251 157.807 96.7963 157.258 96.4748 156.631C96.1533 156.004 95.973 155.313 95.9463 154.609C95.9197 153.904 96.0475 153.202 96.3208 152.552C96.594 151.902 97.0061 151.32 97.5278 150.847L90.8545 135.063L99.5922 136.675L104.59 151.417C105.324 152.349 105.692 153.518 105.624 154.704C105.556 155.889 105.056 157.008 104.22 157.849C103.384 158.69 102.27 159.194 101.088 159.266C99.9055 159.338 98.7383 158.973 97.807 158.239V158.239Z" fill="#A0616A"/>
<path d="M95.9168 149.254L83.8586 124.588L78.5713 106.023L78.5755 89.8949C78.5874 89.8312 79.8304 83.5578 84.4373 83.9916C88.6148 84.3973 90.8648 86.4457 91.9605 90.8409C92.8914 94.5745 91.6183 105.651 91.495 106.697C92.3033 108.618 104.43 137.593 102.423 141.082C102.348 141.218 102.238 141.332 102.105 141.412L104.254 145.961L95.9168 149.254Z" fill="#EB0000"/>
<path d="M78.3157 69.3688C79.7244 69.5526 80.787 68.1074 81.2798 66.7714C81.7726 65.4354 82.1481 63.8801 83.3729 63.1584C85.0461 62.1725 87.1869 63.3583 89.1003 63.033C91.2612 62.6657 92.6662 60.3692 92.7763 58.1743C92.8864 55.9793 92.0153 53.8682 91.1606 51.8444L90.8622 54.3595C90.9021 53.5071 90.7232 52.6587 90.3427 51.8954C89.9621 51.1321 89.3927 50.4795 88.6887 50L89.0733 53.6905C88.9915 53.1813 88.8102 52.6934 88.5398 52.2547C88.2694 51.8159 87.9153 51.4351 87.4978 51.1339C87.0803 50.8328 86.6075 50.6173 86.1067 50.4999C85.606 50.3824 85.087 50.3652 84.5796 50.4494L84.6401 52.6483C82.1443 52.3507 79.6267 52.0527 77.1236 52.2794C74.6204 52.5061 72.0997 53.3003 70.2025 54.9534C67.3646 57.4262 66.3282 61.4979 66.6761 65.2517C67.0241 69.0055 68.5694 72.532 70.1799 75.9385C70.5851 76.7956 71.1456 77.7628 72.0853 77.872C72.9295 77.9701 73.7021 77.2624 73.9645 76.4518C74.1667 75.62 74.1589 74.7509 73.9417 73.9229C73.7043 72.6576 73.4049 71.3644 73.6282 70.0965C73.8515 68.8286 74.761 67.5757 76.0356 67.4203C77.3102 67.265 78.6143 68.7259 78.0016 69.8573L78.3157 69.3688Z" fill="#2F2E41"/>
<path d="M369.177 156.668C368.785 156.22 368.495 155.691 368.329 155.118C368.163 154.546 368.124 153.943 368.215 153.354C368.306 152.765 368.524 152.203 368.855 151.707C369.187 151.212 369.622 150.795 370.131 150.487L367.124 136.308L374.118 139.056L375.901 152.099C376.362 152.991 376.479 154.021 376.233 154.994C375.986 155.967 375.392 156.816 374.563 157.379C373.734 157.942 372.728 158.181 371.735 158.05C370.742 157.919 369.832 157.427 369.177 156.668V156.668Z" fill="#FFB8B8"/>
<path d="M368.383 145.605L368.345 145.466C364.564 131.442 360.655 116.945 355.884 101.16L355.852 101.057L355.958 100.995C358.617 99.4391 362.615 99.5427 365.256 101.236C366.452 102.008 367.382 103.13 367.921 104.45C368.459 105.77 368.58 107.224 368.267 108.616L371.748 126.812C373.163 132.76 374.627 138.917 376.027 144.988L376.066 145.16L375.85 145.174C373.301 145.336 370.669 145.504 368.559 145.597L368.383 145.605Z" fill="#0000FF"/>
<path d="M336.249 221.083H331.289L328.929 201.9H336.249V221.083Z" fill="#FFB8B8"/>
<path d="M337.514 225.903H321.522V225.701C321.524 224.046 322.18 222.459 323.347 221.289C324.514 220.119 326.096 219.461 327.747 219.459H337.514L337.514 225.903Z" fill="#2F2E41"/>
<path d="M382.983 216.98L378.257 218.49L370.2 200.932L377.175 198.703L382.983 216.98Z" fill="#FFB8B8"/>
<path d="M370.411 226.057L370.349 225.863C369.85 224.286 369.995 222.575 370.753 221.105C371.51 219.634 372.819 218.526 374.39 218.021L383.696 215.048L385.648 221.188L370.411 226.057Z" fill="#2F2E41"/>
<path d="M357.88 88.3089C363.368 88.3089 367.816 83.8482 367.816 78.3456C367.816 72.843 363.368 68.3823 357.88 68.3823C352.393 68.3823 347.945 72.843 347.945 78.3456C347.945 83.8482 352.393 88.3089 357.88 88.3089Z" fill="#FFB8B8"/>
<path d="M362.341 76.4991C362.398 72.4805 360.721 68.5007 358.127 66.4997C356.905 65.5288 355.385 65.0131 353.826 65.0407C352.267 65.0684 350.766 65.6375 349.579 66.6512C347.026 68.7433 345.427 72.7813 345.562 76.7964C351.283 76.8127 357.003 76.829 362.341 76.4991Z" fill="#2F2E41"/>
<path d="M339.08 214.908L338.881 214.889C334.567 214.464 330.105 214.025 325.889 213.975L325.659 213.972L325.69 213.744C326.689 206.489 327.113 198.946 327.523 191.652C327.927 184.449 328.345 177.001 329.319 169.928C329.731 168.033 330.133 166.162 330.533 164.297C333.844 148.865 336.972 134.288 343.428 119.859L343.489 119.723L343.637 119.74C349.695 120.476 355.516 122.692 360.027 125.981L360.114 126.044L360.11 126.153C360.023 128.394 359.933 130.711 360.066 132.821C362.114 135.674 363.471 138.966 364.029 142.436C364.588 145.906 364.333 149.459 363.284 152.813C365.06 158.766 366.897 164.92 368.771 170.99C373.321 183.5 378.03 196.446 382.857 209.569L382.936 209.784L382.713 209.836C379.24 210.654 375.658 211.497 372.124 211.824L371.99 211.836L371.927 211.718C362.914 194.899 355.585 177.227 350.046 158.96C348.84 162.648 347.103 165.977 345.419 169.202C343.809 172.135 342.393 175.171 341.179 178.29C340.434 184.424 340.236 191.069 340.045 197.496C339.865 203.573 339.694 209.312 339.102 214.709L339.08 214.908Z" fill="#2F2E41"/>
<path d="M354.488 66.6841C358.795 65.7536 363.559 66.6388 366.941 69.5526C370.323 72.4664 372.041 77.5071 370.651 81.8302C369.262 86.1533 364.545 89.195 360.279 88.0786C361.501 84.6255 360.126 80.3859 357.139 78.3969C353.597 76.0382 352.622 70.4067 354.488 66.6841Z" fill="#2F2E41"/>
<path d="M359.717 126.414L359.56 126.342C354.066 123.829 348.678 121.9 343.631 120.14L343.476 120.107L343.476 119.657L343.576 119.692C343.597 119.645 343.621 119.592 343.645 119.539C343.714 119.386 343.761 119.282 343.801 119.213L343.8 119.212C344.221 118.353 344.555 117.522 344.879 116.718C345.212 115.889 345.557 115.033 346.002 114.127C344.923 113.041 344.184 111.663 343.877 110.161C343.569 108.66 343.707 107.101 344.272 105.677C345.387 103.027 348.23 100.963 351.217 100.621C352.312 97.5992 354.751 91.2502 354.751 91.2502C354.751 91.2502 359.88 91.109 361.942 90.8465L361.977 90.8422L362.011 90.8497C366.514 91.8391 370.273 96.1117 371.153 101.24C371.895 105.568 370.768 110.519 367.978 115.181C366.547 117.46 364.965 119.641 363.241 121.707C361.985 123.283 360.798 124.771 359.812 126.269L359.717 126.414Z" fill="#0000FF"/>
<path d="M369.662 72.5883C366.647 72.137 364.28 69.0467 364.623 66.0095C364.966 62.9722 367.961 60.4904 371.001 60.7259C374.04 60.9615 376.619 63.8756 376.493 66.9296C376.366 69.9836 373.511 73.1644 369.662 72.5883Z" fill="#2F2E41"/>
<path d="M369.192 70.6188C366.177 70.1676 363.81 67.0773 364.152 64.04C364.302 63.0069 364.71 62.0286 365.338 61.1963C365.966 60.3639 366.795 59.7047 367.745 59.2799C365.314 59.8135 363.222 61.938 362.939 64.4457C362.596 67.4829 364.963 70.5732 367.978 71.0245C369.101 71.2013 370.252 71.0399 371.284 70.5608C370.595 70.7057 369.887 70.7254 369.192 70.6188V70.6188Z" fill="#2F2E41"/>
<path d="M310.712 124.156C311.003 123.636 311.404 123.186 311.887 122.838C312.37 122.49 312.923 122.253 313.508 122.142C314.092 122.032 314.693 122.052 315.27 122.2C315.846 122.348 316.382 122.62 316.842 122.999L329.172 115.431L328.918 122.96L317.249 128.992C316.563 129.724 315.634 130.179 314.637 130.27C313.64 130.361 312.644 130.082 311.838 129.485C311.033 128.889 310.473 128.018 310.265 127.035C310.058 126.053 310.217 125.029 310.712 124.156V124.156Z" fill="#FFB8B8"/>
<path d="M320.85 119.719L320.968 119.637C332.894 111.39 345.223 102.864 358.475 93.0936L358.562 93.0295L358.655 93.1086C361.004 95.1047 362.239 98.9188 361.526 101.98C361.199 103.368 360.453 104.621 359.392 105.57C358.33 106.519 357.003 107.118 355.591 107.286L339.641 116.639C334.52 119.959 329.219 123.395 323.977 126.741L323.828 126.836L323.743 126.635C322.741 124.28 321.706 121.847 320.916 119.884L320.85 119.719Z" fill="#0000FF"/>
<path d="M154.533 226.357H0.404537C0.297247 226.357 0.194351 226.314 0.118486 226.238C0.0426204 226.162 0 226.059 0 225.951C0 225.843 0.0426204 225.74 0.118486 225.664C0.194351 225.588 0.297247 225.545 0.404537 225.545H154.533C154.64 225.545 154.743 225.588 154.819 225.664C154.895 225.74 154.938 225.843 154.938 225.951C154.938 226.059 154.895 226.162 154.819 226.238C154.743 226.314 154.64 226.357 154.533 226.357Z" fill="#3F3D56"/>
<path d="M427.596 226.357H273.467C273.36 226.357 273.257 226.314 273.181 226.238C273.105 226.162 273.062 226.059 273.062 225.951C273.062 225.843 273.105 225.74 273.181 225.664C273.257 225.588 273.36 225.545 273.467 225.545H427.596C427.703 225.545 427.806 225.588 427.882 225.664C427.958 225.74 428 225.843 428 225.951C428 226.059 427.958 226.162 427.882 226.238C427.806 226.314 427.703 226.357 427.596 226.357Z" fill="#3F3D56"/>
</g>
<defs>
<filter id="filter0_f_308_472" x="-50" y="0" width="528" height="276.357" filterUnits="userSpaceOnUse" color-interpolation-filters="sRGB">
<feFlood flood-opacity="0" result="BackgroundImageFix"/>
<feBlend mode="normal" in="SourceGraphic" in2="BackgroundImageFix" result="shape"/>
<feGaussianBlur stdDeviation="25" result="effect1_foregroundBlur_308_472"/>
</filter>
<linearGradient id="paint0_linear_308_472" x1="188.733" y1="106.723" x2="240.299" y2="106.723" gradientUnits="userSpaceOnUse">
<stop stop-color="#EB0000"/>
<stop offset="1" stop-color="#0000FF"/>
</linearGradient>
<linearGradient id="paint1_linear_308_472" x1="188.733" y1="106.723" x2="240.299" y2="106.723" gradientUnits="userSpaceOnUse">
<stop stop-color="#EB0000"/>
<stop offset="1" stop-color="#0000FF"/>
</linearGradient>
<clipPath id="clip0_308_472">
<rect width="428" height="176.357" fill="white" transform="translate(0 50)"/>
</clipPath>
<clipPath id="clip1_308_472">
<rect width="428" height="176.357" fill="white" transform="translate(0 50)"/>
</clipPath>
</defs>
</svg>
