<svg width="77" height="38" viewBox="0 0 77 38" fill="none" xmlns="http://www.w3.org/2000/svg">
<g clip-path="url(#clip0_308_556)">
<path d="M57.1258 1.67445C53.0584 2.05322 49.6404 4.61226 46.0411 6.49148C42.1824 8.5069 38.0616 10.1035 33.767 10.889C30.6325 11.4622 27.1407 11.5674 23.8827 10.9886C20.5769 10.4014 17.6809 8.67396 14.2448 8.99393C7.74305 9.5994 2.96167 15.3366 3.56431 21.8081C4.16696 28.2796 9.92547 33.0352 16.426 32.4299C19.8509 32.1109 22.4523 30.0039 25.4792 28.6469C28.5895 27.2514 32.1573 26.6942 35.546 26.6405C39.6943 26.575 43.8212 27.1977 47.745 28.5436C51.8974 29.9674 55.3306 32.1332 59.9224 31.7056C68.2524 30.9299 74.3793 23.5782 73.6071 15.2855C72.8349 6.99274 65.4558 0.898737 57.1258 1.67445Z" fill="url(#paint0_linear_308_556)" fill-opacity="0.8"/>
</g>
<path d="M60.2647 2.01807C55.8246 2.01807 51.8677 4.45203 47.7832 6.12921C43.404 7.92809 38.7836 9.24558 34.0567 9.66431C30.6068 9.96991 26.8172 9.73102 23.3498 8.77276C19.8313 7.80053 16.8713 5.63115 13.1205 5.63115C6.02318 5.63115 0.270508 11.3794 0.270508 18.4698C0.270508 25.5603 6.02318 31.3085 13.1192 31.3085C16.8578 31.3085 19.8854 29.283 23.2979 28.1151C26.8046 26.9139 30.7218 26.6696 34.3945 26.954C38.8905 27.3024 43.294 28.3964 47.4047 30.2552C51.755 32.2217 55.2522 34.9216 60.2647 34.9216C69.3576 34.9216 76.7292 27.5557 76.7292 18.4698C76.7292 9.38396 69.3576 2.01807 60.2647 2.01807Z" fill="url(#paint1_linear_308_556)" fill-opacity="0.5"/>
<defs>
<linearGradient id="paint0_linear_308_556" x1="3.56431" y1="21.8081" x2="73.6071" y2="15.2855" gradientUnits="userSpaceOnUse">
<stop stop-color="#EB0000"/>
<stop offset="0.5" stop-color="#95008A"/>
<stop offset="1" stop-color="#3300FC"/>
</linearGradient>
<linearGradient id="paint1_linear_308_556" x1="0.270508" y1="18.4698" x2="76.7292" y2="18.4698" gradientUnits="userSpaceOnUse">
<stop stop-color="#EB0000"/>
<stop offset="0.5" stop-color="#95008A"/>
<stop offset="1" stop-color="#3300FC"/>
</linearGradient>
<clipPath id="clip0_308_556">
<rect width="70.8439" height="30.6569" fill="white" transform="translate(1.89502 6.56873) rotate(-5.32022)"/>
</clipPath>
</defs>
</svg>
